G04*
G04 #@! TF.GenerationSoftware,Altium Limited,Altium Designer,21.7.1 (17)*
G04*
G04 Layer_Physical_Order=2*
G04 Layer_Color=16711680*
%FSLAX23Y23*%
%MOIN*%
G70*
G04*
G04 #@! TF.SameCoordinates,18DD2E12-D282-4A22-B638-A79D1AEAEEA5*
G04*
G04*
G04 #@! TF.FilePolarity,Positive*
G04*
G01*
G75*
%ADD11C,0.025*%
%ADD12R,0.500X0.050*%
%ADD13R,0.085X0.085*%
%ADD14C,0.085*%
%ADD15R,0.085X0.085*%
%ADD16C,0.079*%
D11*
X3380Y3050D02*
X3650D01*
X3647Y2953D02*
X3650Y2950D01*
X3383Y2953D02*
X3647D01*
X3380Y2950D02*
X3383Y2953D01*
X3380Y3150D02*
X3650D01*
Y3050D02*
X3970D01*
X4115Y2905D01*
X3650Y2950D02*
X3956D01*
X4066Y2840D01*
X4350D01*
X4415Y2905D01*
X3650Y3150D02*
X3653D01*
X3708Y3205D01*
X4115D01*
X3025Y3145D02*
X3027Y3148D01*
X3378D01*
X3380Y3150D01*
X3030Y2975D02*
X3355D01*
X3380Y2950D01*
X4115Y3205D02*
X4196Y3124D01*
X4857D01*
X4315Y2905D02*
X4405Y2995D01*
X4555D01*
D12*
X2505Y2885D02*
D03*
Y2993D02*
D03*
Y3078D02*
D03*
Y3185D02*
D03*
D13*
X4857Y3124D02*
D03*
D14*
Y2946D02*
D03*
X5113D02*
D03*
Y3124D02*
D03*
X4315Y3205D02*
D03*
X4215D02*
D03*
X4115D02*
D03*
X4415Y2905D02*
D03*
X4315D02*
D03*
X4215D02*
D03*
X4115D02*
D03*
X3650Y3150D02*
D03*
Y3050D02*
D03*
X3380Y3150D02*
D03*
Y3050D02*
D03*
X3030Y2975D02*
D03*
X3025Y3145D02*
D03*
X4555Y2995D02*
D03*
D15*
X4415Y3205D02*
D03*
X3650Y2950D02*
D03*
X3380D02*
D03*
D16*
X5060Y2840D02*
D03*
Y3234D02*
D03*
X2895Y2840D02*
D03*
Y3234D02*
D03*
M02*
