M48
;Layer_Color=9474304
;FILE_FORMAT=2:3
INCH,LZ
;TYPE=PLATED
T1F00S00C0.035
T2F00S00C0.036
T3F00S00C0.039
T4F00S00C0.050
T5F00S00C0.079
%
T01
X04115Y02905
X04215
X04315
X04415
Y03205
X04315
X04215
X04115
T02
X04555Y02995
X0303Y02975
X03025Y03145
T03
X04857Y02946
Y03124
X05113
Y02946
T04
X0338Y0295
Y0305
X0365
Y0295
Y0315
X0338
T05
X0506Y0284
X02895
Y03234
X0506
M30
